<svg xmlns="http://www.w3.org/2000/svg" width="56" height="56" viewBox="0 0 56 56">
    <g>
        <g stroke="rgba(0,0,0,0)" stroke-miterlimit="10">
            <path fill="#4788f4" d="M23.866 47.73a23.758 23.758 0 0 1-15.241-5.513l2.161-2.17a21.342 21.342 0 0 0 6.236 3.293 21.664 21.664 0 0 0 13.656-.013A21.342 21.342 0 0 0 36.941 40l2.2 2.192a23.758 23.758 0 0 1-15.275 5.538zM6.857 40.59a23.861 23.861 0 1 1 40.875-16.724 23.783 23.783 0 0 1-6.824 16.691l-2.219-2.21a20.247 20.247 0 0 0 4.629-6.935 3.011 3.011 0 0 0-.158-2.423 1.91 1.91 0 0 0-1.246-1.032 6.26 6.26 0 0 0-1.36-.144 11.856 11.856 0 0 0-8.029 3.9c-.073.075-.151.157-.239.251l-3.117-3.1a6.4 6.4 0 0 0-.893-7.956 6.4 6.4 0 0 0-9.855 8.072l-2.638 2.648a11.821 11.821 0 0 0-7.942-3.816 6.261 6.261 0 0 0-1.361.144 1.91 1.91 0 0 0-1.246 1.034 3.011 3.011 0 0 0-.158 2.423A20.26 20.26 0 0 0 9.4 38.039L6.857 40.59zm17.01-24.49c3.724.007 7.611.22 11.882.65l.414.034h.007l.33.027c1.411.117 2.743.228 4 .228.227 0 .425 0 .6-.01a2.1 2.1 0 0 0 .864-.209.413.413 0 0 0 .2-.267 3.921 3.921 0 0 0-.58-2.524 20.425 20.425 0 0 0-7.307-7.556 20.239 20.239 0 0 0-20.838 0 20.437 20.437 0 0 0-7.308 7.556 3.93 3.93 0 0 0-.58 2.522.417.417 0 0 0 .2.269 2.1 2.1 0 0 0 .864.209c.2.006.405.009.608.009 1.264 0 2.6-.111 4.024-.229l.332-.027.4-.033c4.286-.431 8.174-.644 11.888-.649z" transform="translate(-10 -4) translate(-11489.582 -5219.582) translate(11503.582 5227.582)"/>
            <path fill="#e24148" d="M15.238 26.549a24.985 24.985 0 0 1-4.963-.528h-.027c-.318-.067-.634-.141-.95-.22l-.091-.022q-.452-.115-.9-.249l-.13-.038q-.433-.131-.862-.278l-.156-.054q-.418-.147-.832-.309l-.173-.067q-.406-.162-.807-.34l-.182-.081q-.4-.178-.788-.372l-.185-.092c-.259-.131-.517-.266-.771-.406l-.182-.1c-.254-.143-.507-.289-.757-.441l-.175-.109c-.251-.155-.5-.314-.746-.48l-.161-.12c-.248-.17-.5-.343-.738-.522-.049-.036-.1-.073-.145-.11-.172-.129-.346-.255-.515-.389l.006-.006 2.34-2.35a21.569 21.569 0 0 0 26.152-.052l2.35 2.34.006.006c-.182.145-.369.283-.554.423l-.091.069q-.387.288-.785.56l-.112.078c-.261.177-.525.347-.791.513l-.128.08c-.264.162-.531.318-.8.47l-.138.077q-.4.224-.81.431l-.142.071q-.41.206-.826.394l-.14.062q-.42.188-.846.36l-.131.052q-.433.171-.869.327l-.117.04q-.447.156-.9.294l-.093.027q-.464.14-.934.262l-.054.014a25.012 25.012 0 0 1-5.651.778q-.27.006-.539.006zm-10.885-9.7l2.354-2.365a15.469 15.469 0 0 0 17.416-.034l2.364 2.355a18.757 18.757 0 0 1-22.134.044zm4.068-4.085l2.4-2.413a9.786 9.786 0 0 0 9.166-.018l2.413 2.4a13.088 13.088 0 0 1-13.982.028zM13.174 8c-.093-.054-.186-.108-.276-.17a4.308 4.308 0 0 1-.621-.509 4.316 4.316 0 1 1 5.549.418c-.087.064-.175.124-.266.181a4.284 4.284 0 0 1-4.386.08z" transform="translate(-10 -4) translate(-11489.582 -5219.582) translate(11512.021 5248.764)"/>
        </g>
    </g>
</svg>
