<svg xmlns="http://www.w3.org/2000/svg" xmlns:xlink="http://www.w3.org/1999/xlink" width="56" height="56" viewBox="0 0 56 56">
    <defs>
        <linearGradient id="x4t6m8fm4a" x1="-.2" x2=".87" y1=".5" y2=".5" gradientUnits="objectBoundingBox">
            <stop offset="0" stop-color="#ff0"/>
            <stop offset="1" stop-color="#d35858"/>
        </linearGradient>
        <linearGradient id="ue6h4xchgb" x1="1.262" x2=".019" y1=".5" y2=".5" xlink:href="#x4t6m8fm4a"/>
    </defs>
    <g>
        <g>
            <path fill="url(#x4t6m8fm4a)" d="M345.408 161.583l-14.365-14.365a9.1 9.1 0 0 0-12.865 0l-14.365 14.365a9.1 9.1 0 0 0 0 12.864l14.365 14.365a9.1 9.1 0 0 0 12.865 0l14.365-14.365a9.1 9.1 0 0 0 0-12.864zm-9.014 7.438s-7.872 8.695-15.218 16.816c1.319-4.829 3.157-11.5 3.641-13.164a.945.945 0 0 0-.963-.741h-8.486c-2.638 0-4.144-2.62-2.72-4.512l1.21-1.334c1.844-2.032 9.91-10.9 14.448-15.894-1.257 4.349-3.361 11.492-3.905 13.36a.945.945 0 0 0 .963.741h8.486c2.74.007 4.26 2.827 2.544 4.728z" transform="translate(-9 -4) translate(-287.148 -135.554)"/>
            <path fill="url(#ue6h4xchgb)" d="M337.8 171.933c-2.638 0-4.144-2.62-2.72-4.512l1.21-1.334c1.844-2.032 9.91-10.9 14.448-15.894-1.257 4.349-3.361 11.492-3.905 13.36a.945.945 0 0 0 .963.741h8.486c9.707 0 11.17 8.81 4.884 16.825l6.673-6.673a9.1 9.1 0 0 0 0-12.864l-14.365-14.365a9.1 9.1 0 0 0-12.865 0l-6.9 6.9c-7.543 7.542-5.781 17.816 4.091 17.816z" transform="translate(-9 -4) translate(-287.148 -135.554) translate(-22.429)"/>
        </g>
    </g>
</svg>
