<svg xmlns="http://www.w3.org/2000/svg" width="56" height="56" viewBox="0 0 56 56">
    <g>
        <g>
            <path fill="#4788f4" d="M126.761 173.826h-8.548V159.91l-5.7 6.436-5.7-6.436v13.916h-6.593a1.956 1.956 0 0 1-1.956-1.956v-25.319l-8.5 8.5V178.1a4.344 4.344 0 0 0 4.344 4.344h24.038z" transform="translate(-10 -4) translate(-74.764 -99.818) translate(0 -28.118)"/>
            <path fill="#e24148" d="M154.51 118.433v27.275l8.5-8.5v-23.451a3.939 3.939 0 0 0-3.939-3.939H134.63l-8.615 8.615h6.869l7.378 8.333 7.379-8.333z" transform="translate(-10 -4) translate(-74.764 -99.818) translate(-27.749)"/>
        </g>
    </g>
</svg>
