<svg xmlns="http://www.w3.org/2000/svg" width="133.931" height="40.239" viewBox="0 0 133.931 40.239">
    <defs>
        <style>
            .cls-1{fill:#4788f4}.cls-3{fill:#d3d5db}
        </style>
    </defs>
    <g id="Group_74" transform="translate(-281.379 -217.299)">
        <g id="Group_9" transform="translate(281.379 217.299)">
            <path id="Path_9" d="M531.69 225.584c6.236 2.175 11.078 7 11.078 13.5 0 7.875-6.537 14.354-14.869 15.133a13.783 13.783 0 0 1-5.23 5.071 24.282 24.282 0 0 0 3.577.263c12.281 0 22.236-9.163 22.236-20.467 0-8.341-5.868-14.9-13.645-18.092z" class="cls-1" transform="translate(-414.551 -219.339)"/>
            <path id="Path_10" fill="#e24148" d="M464.117 255.561c0 2.653-2.589 5.579-4.644 7.341a7.651 7.651 0 0 1 5.263-2.2h-.009a6.437 6.437 0 1 1-6.969 6.415 5.943 5.943 0 0 1 .378-2.089 6.162 6.162 0 0 1 .718-1.382 15.4 15.4 0 0 1-6.789 2.288 5.948 5.948 0 0 1 .118 1.182 6.709 6.709 0 0 1-6.97 6.415 6.891 6.891 0 0 1-6.757-4.834l-4.273 3.926a12.735 12.735 0 0 0 11.03 6.041 12.952 12.952 0 0 0 9.758-4.292 12.952 12.952 0 0 0 9.758 4.292c6.928 0 12.545-5.17 12.545-11.547s-5.617-11.547-12.545-11.547z" transform="translate(-365.713 -238.416)"/>
            <path id="Path_11" d="M479.989 222.842a18.1 18.1 0 0 0-2.343-.151c-6.987 0-14.083 4.927-15.815 10h-.005c-1.834 5.821-7.7 10.085-14.668 10.112v-7.545a6.437 6.437 0 1 0-6.97-6.415h-5.575c0-6.378 5.617-11.548 12.545-11.548a12.426 12.426 0 0 1 12.1 8.493 24.382 24.382 0 0 1 23.947-7.716l-3.216 4.765z" class="cls-1" transform="translate(-365.951 -217.299)"/>
            <g id="Group_10" transform="translate(0 11.754)">
                <path id="Path_1" d="M281.379 267.318v-13.485l2.778-.507v1.366h.085a4.219 4.219 0 0 1 3.053-1.4c2.417 0 3.859 1.873 3.859 4.312 0 2.752-1.929 5.074-5.406 5.074a5.786 5.786 0 0 1-1.59-.214v4.859zm2.778-6.44a2.849 2.849 0 0 0 1.569.527c1.4 0 2.438-1.269 2.438-3.084s-.954-3.025-2.353-3.025a2.6 2.6 0 0 0-1.654.781z" class="cls-3" transform="translate(-281.379 -248.916)"/>
                <path id="Path_2" d="M306.645 257.133v-13.094l2.777-.507v13.6z" class="cls-3" transform="translate(-295.324 -243.531)"/>
                <path id="Path_3" d="M322.815 262.517v-1.191h-.085a3.559 3.559 0 0 1-3.074 1.484 2.458 2.458 0 0 1-2.65-2.381c0-1.912 1.929-2.869 5.067-3.532l.742-.156c0-1.405-.509-2.166-1.739-2.166a3.4 3.4 0 0 0-2.587 1.541l-1.06-1.424a6.545 6.545 0 0 1 4.367-1.4c2.566 0 3.8 1.209 3.8 3.961v5.269zm0-4.644l-.488.137c-1.8.507-2.523 1.151-2.523 1.912a1.043 1.043 0 0 0 1.187 1.093 2.348 2.348 0 0 0 1.823-1.054z" class="cls-3" transform="translate(-301.042 -248.916)"/>
                <path id="Path_4" d="M345.992 258.3a4.132 4.132 0 0 1-2.947 1.093 2.732 2.732 0 0 1-3.032-2.869v-5.054h-1.526v-1.307h1.526v-2.557l2.778-.507v3.064h2.883v1.307h-2.883v5.191c0 .8.445 1.249 1.06 1.249a2.049 2.049 0 0 0 1.484-.742z" class="cls-3" transform="translate(-312.898 -245.502)"/>
                <path id="Path_5" d="M356.809 257.133V249.5h-1.526v-1.3h1.526v-.351c0-2.986 1.378-4.313 3.986-4.313a6 6 0 0 1 2.9.8l-.848 1.639a2.273 2.273 0 0 0-1.845-1.152c-.954 0-1.42.644-1.42 1.932v1.445h2.756v1.3h-2.756v7.63z" class="cls-3" transform="translate(-322.168 -243.531)"/>
                <path id="Path_6" d="M376.5 262.809c-3.159 0-4.941-2.049-4.941-4.625 0-2.752 2.227-4.9 5.428-4.9 3.159 0 4.941 2.05 4.941 4.625 0 2.752-2.227 4.9-5.428 4.9m2.438-4.41c0-2.654-.869-3.825-2.269-3.825-1.251 0-2.12 1.171-2.12 3.122 0 2.654.869 3.825 2.268 3.825 1.251 0 2.12-1.171 2.12-3.122" class="cls-3" transform="translate(-331.15 -248.915)"/>
                <path id="Path_7" d="M398.149 262.517v-8.684l2.778-.507v1.737h.085a2.684 2.684 0 0 1 2.544-1.776 3.223 3.223 0 0 1 1.378.312l-.466 2.147a1.77 1.77 0 0 0-1.4-.6c-.975 0-1.844.975-2.141 2.81v4.566z" class="cls-3" transform="translate(-345.826 -248.915)"/>
                <path id="Path_8" d="M427.149 262.517v-5.308c0-1.093-.276-1.776-1.4-1.776a2.672 2.672 0 0 0-1.972 1.132v5.952H421v-5.308c0-1.093-.276-1.776-1.4-1.776a2.735 2.735 0 0 0-1.972 1.132v5.952h-2.777v-8.684l2.777-.507v1.463h.106a5.032 5.032 0 0 1 3.392-1.5 2.388 2.388 0 0 1 2.481 1.776 5.212 5.212 0 0 1 3.668-1.776c1.844 0 2.65 1.307 2.65 3.005v6.225z" class="cls-3" transform="translate(-355.045 -248.915)"/>
            </g>
        </g>
    </g>
</svg>
